<svg width="456" height="300" viewBox="0 0 456 300" fill="none" xmlns="http://www.w3.org/2000/svg">
<path fill-rule="evenodd" clip-rule="evenodd" d="M349.679 0.0826625C410.911 -2.00512 467.367 35.7564 510.604 79.1658C549.608 118.325 556.88 175.261 575.863 227.169C595.783 281.639 632.673 332.488 624.229 389.868C615.075 452.067 583.552 516.312 528.772 547.161C475.444 577.192 410.55 538.124 349.679 544.478C277.323 552.031 201.337 628.543 141.191 587.619C81.6054 547.076 130.7 447.578 107.156 379.461C82.8351 309.097 -18.8736 259.182 3.08207 188.045C24.9425 117.216 131.373 125.211 196.533 89.8743C249.857 60.9564 289.053 2.14972 349.679 0.0826625Z" fill="#FE4F5B"/>
</svg>
