<svg width="355" height="281" viewBox="0 0 355 281" fill="none" xmlns="http://www.w3.org/2000/svg">
<path d="M223.224 256.107L217.858 256.106L215.305 235.378L223.225 235.378L223.224 256.107Z" fill="#9E616A"/>
<path d="M224.593 261.316L207.289 261.315V261.096C207.289 259.307 207.999 257.592 209.262 256.327C210.525 255.062 212.238 254.351 214.024 254.351H214.025L224.593 254.352L224.593 261.316Z" fill="#2F2E41"/>
<path d="M203.964 256.107L198.598 256.106L196.045 235.378L203.965 235.378L203.964 256.107Z" fill="#9E616A"/>
<path d="M205.333 261.316L188.029 261.315V261.096C188.029 259.307 188.739 257.592 190.002 256.327C191.265 255.062 192.978 254.351 194.764 254.351H194.764L205.333 254.352L205.333 261.316Z" fill="#2F2E41"/>
<path d="M141.463 110.858C141.892 111.448 142.445 111.938 143.083 112.291C143.721 112.645 144.429 112.854 145.156 112.904C145.884 112.954 146.613 112.843 147.294 112.58C147.974 112.317 148.589 111.908 149.094 111.381L159.713 115.534L163.806 109.687L148.729 104.034C147.789 103.243 146.592 102.824 145.365 102.857C144.137 102.89 142.965 103.373 142.069 104.214C141.173 105.055 140.617 106.196 140.505 107.42C140.393 108.645 140.734 109.868 141.463 110.858V110.858Z" fill="#9E616A"/>
<path d="M203.896 146.281L189.916 150.848L194.586 250.001L205.376 250.268L210.898 180.344L212.152 249.992L225.494 250.728L230.412 146.281H203.896Z" fill="#2F2E41"/>
<path d="M194.463 87.8325L230.346 80.0251L234.336 110.966L231.013 125.749L232.344 148.216C232.344 148.216 203.971 162.358 189.916 150.848C189.916 150.848 201.213 121.133 194.664 107.222L194.463 87.8325Z" fill="#FC0000"/>
<path d="M200.677 92.2089L194.463 87.8325C194.463 87.8325 194.096 87.3233 188.917 93.386C183.739 99.4486 173.233 109.092 173.233 109.092L155.724 102.517L152.534 114.319L172.883 123.816L201.693 104.548L200.677 92.2089Z" fill="#FC0000"/>
<path d="M232.351 159.814C233.01 159.503 233.593 159.05 234.059 158.488C234.525 157.926 234.862 157.268 235.046 156.562C235.231 155.855 235.258 155.117 235.127 154.398C234.996 153.68 234.709 152.999 234.286 152.404L240.338 142.73L235.365 137.613L227.01 151.394C226.058 152.171 225.424 153.271 225.228 154.485C225.032 155.699 225.287 156.942 225.946 157.98C226.604 159.018 227.62 159.778 228.8 160.116C229.981 160.454 231.244 160.347 232.351 159.814V159.814Z" fill="#9E616A"/>
<path d="M224.749 86.1203L230.346 80.025C230.346 80.025 236.582 77.8503 241.677 89.0878C246.772 100.325 252.462 123.119 252.462 123.119L239.157 148.783L228.825 144.16L239.157 122.938L228.223 107.222L224.749 86.1203Z" fill="#FC0000"/>
<path d="M215.259 77.4872C220.903 74.3973 222.978 67.3102 219.892 61.6578C216.807 56.0054 209.729 53.928 204.085 57.0179C198.44 60.1078 196.366 67.1949 199.452 72.8473C202.537 78.4998 209.614 80.5771 215.259 77.4872Z" fill="#9E616A"/>
<path d="M219.494 56.8223C218.943 54.5062 217.015 52.678 214.797 51.8208C212.578 50.9635 210.108 50.9718 207.764 51.3706C203.873 52.0326 200.24 53.7129 196.66 55.3763L199.42 56.6983L195.612 56.917L198.554 58.4408C197.768 59.0396 197.171 59.8516 196.832 60.7803C196.493 61.7091 196.428 62.7157 196.643 63.6807C196.794 64.3122 197.199 65.0081 197.847 65.0299C198.631 65.0562 199.04 64.1418 199.588 63.5809C200.318 62.8347 201.47 62.6691 202.504 62.8097C203.537 62.9503 204.518 63.3485 205.537 63.5686C206.826 63.8376 208.158 63.8228 209.441 63.5251C210.724 63.2275 211.927 62.6541 212.967 61.8448L216.636 70.6923C216.601 70.3587 216.644 70.0215 216.761 69.7072C216.878 69.3928 217.066 69.1099 217.31 68.8803C217.555 68.6508 217.849 68.4809 218.169 68.3839C218.49 68.2869 218.829 68.2655 219.159 68.3212C219.489 68.377 219.802 68.5085 220.074 68.7054C220.345 68.9024 220.567 69.1594 220.722 69.4565C220.878 69.7535 220.963 70.0826 220.971 70.418C220.978 70.7533 220.908 71.0859 220.766 71.3898C222.355 68.9907 223.633 66.265 223.676 63.3869C223.72 60.5087 222.295 57.4767 219.685 56.269" fill="#2F2E41"/>
<path d="M84.5082 235.549L79.5467 243.36L82.4366 233.191C76.3349 226.815 67.8878 222.151 67.8878 222.151C67.8878 222.151 57.4865 239.27 60.286 249.8C63.0855 260.331 70.3143 262.341 78.0257 260.285C85.737 258.229 91.0108 252.886 88.2113 242.355C87.5882 240.011 86.2346 237.71 84.5082 235.549Z" fill="#F2F2F2"/>
<path d="M77.9437 244.139L78.0817 244.658C79.6549 250.699 79.8903 255.678 78.7778 259.524C78.7625 259.58 78.744 259.635 78.7288 259.691L78.4693 259.614L78.2208 259.538C79.4811 255.368 78.9186 250.1 77.5478 244.83C77.5053 244.66 77.4621 244.487 77.4138 244.316C76.8138 242.09 76.0787 239.873 75.2786 237.741C75.2181 237.576 75.1544 237.409 75.0906 237.241C74.02 234.434 72.8501 231.79 71.7663 229.512C71.6904 229.351 71.612 229.19 71.5342 229.032C69.6839 225.183 68.1153 222.456 67.7628 221.854C67.7212 221.779 67.6967 221.739 67.6914 221.73L67.9167 221.595L67.9186 221.592L68.1465 221.457C68.1518 221.466 68.2344 221.601 68.3786 221.855C68.9237 222.799 70.3714 225.371 72.0406 228.828C72.1151 228.984 72.1935 229.145 72.2694 229.306C73.1509 231.154 74.0855 233.233 74.9744 235.44C75.1986 235.993 75.413 236.542 75.6177 237.084C75.684 237.251 75.7477 237.418 75.8082 237.584C76.6734 239.887 77.3853 242.072 77.9437 244.139Z" fill="white"/>
<path d="M72.0404 228.828C71.8747 228.897 71.7063 228.967 71.5341 229.032C71.0664 229.209 70.59 229.363 70.1067 229.492C68.0475 230.044 65.8908 230.126 63.7957 229.733C63.7241 229.898 63.6526 230.063 63.5791 230.231C65.7886 230.665 68.068 230.588 70.2433 230.006C70.7593 229.868 71.2676 229.703 71.7662 229.512C71.9359 229.447 72.1042 229.378 72.2693 229.306C73.6342 228.724 74.9029 227.938 76.032 226.974C75.8841 226.862 75.7395 226.752 75.5981 226.644C74.5261 227.543 73.3272 228.279 72.0404 228.828V228.828Z" fill="white"/>
<path d="M75.6178 237.084C75.4434 237.142 75.2678 237.194 75.0907 237.241C75.0375 237.258 74.9811 237.273 74.9272 237.288C72.6951 237.883 70.3525 237.928 68.0989 237.421C65.8454 236.914 63.7478 235.868 61.985 234.373C61.9227 234.552 61.8603 234.731 61.8013 234.912C63.6238 236.414 65.7774 237.46 68.0838 237.962C70.3902 238.465 72.7829 238.41 75.0638 237.802C75.1357 237.782 75.2075 237.763 75.2787 237.742C75.4576 237.691 75.6333 237.639 75.8083 237.584C78.5106 236.713 80.9053 235.081 82.7059 232.883C82.5835 232.753 82.4611 232.624 82.3361 232.495C80.5903 234.647 78.2555 236.242 75.6178 237.084V237.084Z" fill="white"/>
<path d="M77.9434 244.139C77.7679 244.202 77.591 244.26 77.4135 244.316C77.2231 244.375 77.032 244.431 76.8395 244.482C73.8393 245.279 70.6623 245.08 67.7841 243.917C64.906 242.754 62.4815 240.688 60.8737 238.029C60.8136 238.268 60.7528 238.505 60.6978 238.742C62.4104 241.366 64.905 243.382 67.8272 244.505C70.7495 245.627 73.9507 245.8 76.9762 244.996C77.1686 244.945 77.3604 244.891 77.5475 244.83C77.7284 244.777 77.9052 244.718 78.0814 244.658C81.6339 243.406 84.5787 240.85 86.3195 237.506C86.2151 237.33 86.1036 237.159 85.9915 236.985C84.3398 240.327 81.453 242.893 77.9434 244.139Z" fill="white"/>
<path d="M267.915 246.732L267.92 246.752L267.915 246.732ZM267.915 246.732L269.073 246.424C269.08 246.43 269.087 246.435 269.093 246.44C269.17 246.498 269.243 246.557 269.315 246.618C269.621 246.881 269.82 247.117 269.93 247.268C269.988 247.349 270.014 247.394 270.014 247.394C270.014 247.393 269.875 247.148 269.696 246.533C269.696 246.483 269.696 246.392 269.702 246.257L271.406 245.804L267.915 246.732ZM267.915 246.732L269.073 246.424M267.915 246.732L269.073 246.424M269.073 246.424C268.823 246.236 268.548 246.064 268.254 245.917C268.029 245.804 267.819 245.719 267.629 245.654C267.629 245.654 267.628 245.655 267.628 245.655L269.073 246.424Z" fill="#F2F2F2" stroke="#05FF3C" stroke-width="32"/>
<mask id="path-19-inside-1" fill="white">
<path d="M271.569 244.828L271.705 245.34C273.256 251.294 273.488 256.2 272.391 259.99C272.376 260.046 272.358 260.099 272.343 260.155L272.087 260.079L271.842 260.004C273.084 255.895 272.53 250.703 271.179 245.51C271.137 245.342 271.095 245.172 271.047 245.003C270.456 242.809 269.731 240.624 268.943 238.524C268.883 238.361 268.82 238.196 268.758 238.031C267.703 235.265 266.55 232.659 265.482 230.414C265.407 230.255 265.329 230.097 265.253 229.941C263.429 226.148 261.884 223.461 261.536 222.867C261.495 222.794 261.471 222.754 261.466 222.745L261.688 222.612L261.69 222.609L261.914 222.476C261.92 222.486 262.001 222.618 262.143 222.868C262.68 223.799 264.107 226.333 265.752 229.74C265.825 229.894 265.903 230.052 265.977 230.211C266.846 232.033 267.767 234.081 268.643 236.256C268.864 236.802 269.075 237.342 269.277 237.876C269.342 238.041 269.405 238.206 269.465 238.369C270.317 240.639 271.019 242.792 271.569 244.828Z"/>
</mask>
<path d="M271.569 244.828L271.705 245.34C273.256 251.294 273.488 256.2 272.391 259.99C272.376 260.046 272.358 260.099 272.343 260.155L272.087 260.079L271.842 260.004C273.084 255.895 272.53 250.703 271.179 245.51C271.137 245.342 271.095 245.172 271.047 245.003C270.456 242.809 269.731 240.624 268.943 238.524C268.883 238.361 268.82 238.196 268.758 238.031C267.703 235.265 266.55 232.659 265.482 230.414C265.407 230.255 265.329 230.097 265.253 229.941C263.429 226.148 261.884 223.461 261.536 222.867C261.495 222.794 261.471 222.754 261.466 222.745L261.688 222.612L261.69 222.609L261.914 222.476C261.92 222.486 262.001 222.618 262.143 222.868C262.68 223.799 264.107 226.333 265.752 229.74C265.825 229.894 265.903 230.052 265.977 230.211C266.846 232.033 267.767 234.081 268.643 236.256C268.864 236.802 269.075 237.342 269.277 237.876C269.342 238.041 269.405 238.206 269.465 238.369C270.317 240.639 271.019 242.792 271.569 244.828Z" fill="#2AFF07"/>
<path d="M271.569 244.828L302.495 236.608L302.478 236.543L302.461 236.479L271.569 244.828ZM271.705 245.34L302.673 237.276L302.652 237.198L302.631 237.119L271.705 245.34ZM272.391 259.99L241.651 251.099L241.574 251.366L241.501 251.635L272.391 259.99ZM272.343 260.155L263.276 290.843L294.674 300.12L303.231 268.518L272.343 260.155ZM272.087 260.079L262.632 290.651L262.826 290.71L263.02 290.768L272.087 260.079ZM271.842 260.004L241.211 250.744L232.011 281.18L262.387 290.575L271.842 260.004ZM271.179 245.51L240.132 253.262L240.17 253.414L240.21 253.566L271.179 245.51ZM271.047 245.003L240.15 253.332L240.198 253.508L240.247 253.685L271.047 245.003ZM268.943 238.524L238.887 249.509L238.935 249.641L238.985 249.772L268.943 238.524ZM268.758 238.031L298.663 226.643L298.66 226.636L298.657 226.629L268.758 238.031ZM265.482 230.414L236.521 244.027L236.553 244.094L236.585 244.161L265.482 230.414ZM265.253 229.941L236.412 243.806L236.474 243.934L236.537 244.061L265.253 229.941ZM261.536 222.867L233.64 238.545L233.777 238.789L233.918 239.03L261.536 222.867ZM261.466 222.745L245.075 195.261L218.47 211.128L233.465 238.235L261.466 222.745ZM261.688 222.612L278.078 250.096L285.178 245.862L289.339 238.719L261.688 222.612ZM261.69 222.609L245.375 195.08L238.223 199.319L234.039 206.502L261.69 222.609ZM261.914 222.476L289.927 207.006L273.979 178.129L245.6 194.947L261.914 222.476ZM262.143 222.868L234.338 238.708L234.383 238.786L234.428 238.865L262.143 222.868ZM265.752 229.74L294.636 215.966L294.602 215.896L294.568 215.826L265.752 229.74ZM265.977 230.211L237.019 243.827L237.056 243.908L237.095 243.988L265.977 230.211ZM268.643 236.256L238.961 248.213L238.971 248.237L238.981 248.262L268.643 236.256ZM269.277 237.876L239.337 249.173L239.437 249.438L239.542 249.701L269.277 237.876ZM269.465 238.369L239.409 249.353L239.458 249.487L239.508 249.62L269.465 238.369ZM240.643 253.049L240.779 253.561L302.631 237.119L302.495 236.608L240.643 253.049ZM240.738 253.404C241.089 254.754 241.088 255.228 241.076 254.977C241.065 254.734 241.019 253.285 241.651 251.099L303.131 268.882C306.486 257.282 304.927 245.935 302.673 237.276L240.738 253.404ZM241.501 251.635C241.583 251.334 241.652 251.095 241.694 250.953C241.716 250.881 241.733 250.824 241.742 250.792C241.751 250.763 241.758 250.74 241.755 250.751C241.754 250.752 241.743 250.789 241.731 250.831C241.717 250.876 241.696 250.946 241.671 251.031C241.621 251.199 241.544 251.465 241.455 251.792L303.231 268.518C303.15 268.817 303.08 269.055 303.039 269.196C303.018 269.267 303.001 269.324 302.991 269.355C302.983 269.383 302.976 269.406 302.979 269.394C302.98 269.392 302.991 269.355 303.004 269.312C303.018 269.267 303.039 269.196 303.065 269.11C303.115 268.941 303.192 268.674 303.281 268.346L241.501 251.635ZM281.41 229.466L281.154 229.391L263.02 290.768L263.276 290.843L281.41 229.466ZM281.542 229.508L281.298 229.432L262.387 290.575L262.632 290.651L281.542 229.508ZM302.473 269.263C306.308 256.577 303.943 244.353 302.149 237.454L240.21 253.566C240.527 254.787 240.553 255.281 240.544 255.139C240.537 255.032 240.516 254.603 240.578 253.91C240.639 253.217 240.796 252.119 241.211 250.744L302.473 269.263ZM302.226 237.758C302.201 237.658 302.046 237.027 301.847 236.321L240.247 253.685C240.187 253.47 240.145 253.311 240.129 253.247C240.12 253.213 240.115 253.194 240.116 253.198C240.118 253.205 240.121 253.217 240.132 253.262L302.226 237.758ZM301.944 236.674C301.041 233.322 299.981 230.153 298.901 227.276L238.985 249.772C239.482 251.096 239.871 252.296 240.15 253.332L301.944 236.674ZM298.998 227.539C298.852 227.14 298.712 226.773 298.663 226.643L238.852 249.419C238.869 249.462 238.88 249.491 238.89 249.518C238.9 249.543 238.905 249.558 238.908 249.566C238.916 249.585 238.906 249.56 238.887 249.509L298.998 227.539ZM298.657 226.629C297.232 222.892 295.721 219.489 294.379 216.668L236.585 244.161C237.378 245.83 238.173 247.637 238.858 249.433L298.657 226.629ZM294.442 216.801C294.242 216.376 294.062 216.01 293.969 215.821L236.537 244.061C236.549 244.087 236.558 244.105 236.564 244.117C236.57 244.129 236.572 244.133 236.57 244.13C236.569 244.128 236.564 244.118 236.556 244.101C236.548 244.084 236.536 244.059 236.521 244.027L294.442 216.801ZM294.093 216.076C291.797 211.299 289.81 207.825 289.154 206.704L233.918 239.03C233.918 239.029 233.991 239.154 234.124 239.391C234.257 239.626 234.444 239.964 234.673 240.39C235.136 241.247 235.748 242.423 236.412 243.806L294.093 216.076ZM289.432 207.189C289.373 207.083 289.317 206.984 289.264 206.892C289.21 206.799 289.163 206.717 289.124 206.65C289.105 206.618 289.089 206.59 289.078 206.571C289.072 206.562 289.068 206.555 289.066 206.551C289.065 206.55 289.065 206.549 289.064 206.549C289.064 206.548 289.064 206.548 289.064 206.548C289.064 206.548 289.065 206.549 289.066 206.551C289.068 206.554 289.075 206.567 289.084 206.583C289.094 206.598 289.111 206.629 289.134 206.667C289.145 206.687 289.16 206.712 289.177 206.742C289.194 206.771 289.215 206.808 289.239 206.85C289.263 206.893 289.294 206.947 289.33 207.011C289.349 207.043 289.369 207.079 289.391 207.119C289.414 207.159 289.439 207.205 289.467 207.255L233.465 238.235C233.519 238.334 233.567 238.418 233.602 238.481C233.639 238.545 233.67 238.601 233.695 238.644C233.743 238.727 233.781 238.794 233.804 238.832C233.827 238.873 233.846 238.906 233.857 238.924C233.868 238.943 233.877 238.958 233.881 238.964C233.9 238.997 233.874 238.952 233.851 238.914C233.793 238.813 233.72 238.688 233.64 238.545L289.432 207.189ZM277.856 250.228L278.078 250.096L245.297 195.129L245.075 195.261L277.856 250.228ZM289.339 238.719L289.341 238.716L234.039 206.502L234.037 206.505L289.339 238.719ZM278.004 250.138L278.229 250.005L245.6 194.947L245.375 195.08L278.004 250.138ZM233.902 237.946C233.998 238.12 234.077 238.259 234.123 238.339C234.172 238.425 234.213 238.496 234.241 238.545C234.296 238.639 234.34 238.714 234.362 238.75C234.405 238.824 234.44 238.882 234.447 238.895C234.459 238.914 234.469 238.931 234.47 238.933C234.474 238.939 234.473 238.938 234.472 238.937C234.464 238.923 234.448 238.895 234.428 238.861C234.388 238.795 234.359 238.744 234.338 238.708L289.948 207.028C289.867 206.886 289.791 206.755 289.72 206.633C289.649 206.51 289.585 206.4 289.527 206.303C289.498 206.254 289.472 206.21 289.449 206.171C289.425 206.131 289.406 206.099 289.392 206.076C289.386 206.066 289.381 206.057 289.38 206.056C289.379 206.054 289.38 206.056 289.382 206.059C289.383 206.061 289.387 206.068 289.392 206.076C289.397 206.084 289.406 206.1 289.418 206.119C289.423 206.128 289.431 206.141 289.439 206.155C289.448 206.169 289.458 206.187 289.471 206.208C289.483 206.229 289.499 206.256 289.517 206.287C289.527 206.303 289.537 206.322 289.549 206.342C289.561 206.361 289.574 206.384 289.589 206.41C289.603 206.435 289.621 206.465 289.64 206.498C289.659 206.531 289.681 206.57 289.707 206.615C289.719 206.637 289.733 206.662 289.748 206.688C289.763 206.714 289.78 206.743 289.797 206.775C289.815 206.806 289.835 206.841 289.856 206.879C289.877 206.917 289.901 206.96 289.927 207.006L233.902 237.946ZM234.428 238.865C234.683 239.305 235.716 241.128 236.935 243.654L294.568 215.826C292.498 211.538 290.678 208.292 289.858 206.871L234.428 238.865ZM236.868 243.514C236.907 243.596 236.942 243.669 236.967 243.721C236.98 243.747 236.992 243.772 237.001 243.792C237.011 243.813 237.018 243.827 237.025 243.841C237.054 243.902 237.043 243.879 237.019 243.827L294.936 216.596C294.837 216.385 294.75 216.203 294.703 216.107C294.691 216.081 294.679 216.057 294.67 216.038C294.661 216.018 294.654 216.005 294.648 215.992C294.636 215.966 294.633 215.961 294.636 215.966L236.868 243.514ZM237.095 243.988C237.739 245.34 238.38 246.772 238.961 248.213L298.325 224.299C297.154 221.39 295.953 218.726 294.86 216.435L237.095 243.988ZM238.981 248.262C239.109 248.579 239.228 248.883 239.337 249.173L299.217 226.58C298.923 225.801 298.619 225.024 298.305 224.25L238.981 248.262ZM239.542 249.701C239.493 249.578 239.449 249.463 239.409 249.353L299.52 227.384C299.361 226.948 299.192 226.503 299.012 226.052L239.542 249.701ZM239.508 249.62C240.055 251.076 240.428 252.255 240.678 253.178L302.461 236.479C301.609 233.329 300.58 230.202 299.421 227.117L239.508 249.62Z" fill="#05FF3C" mask="url(#path-19-inside-1)"/>
<mask id="path-21-inside-2" fill="white">
<path d="M265.752 229.74C265.588 229.808 265.422 229.877 265.252 229.941C264.792 230.116 264.322 230.268 263.846 230.395C261.817 230.938 259.691 231.02 257.627 230.632C257.556 230.794 257.485 230.957 257.413 231.122C259.59 231.551 261.837 231.475 263.98 230.901C264.489 230.765 264.99 230.603 265.481 230.414C265.648 230.351 265.814 230.282 265.977 230.211C267.322 229.638 268.572 228.863 269.685 227.913C269.539 227.803 269.397 227.694 269.257 227.588C268.201 228.474 267.02 229.199 265.752 229.74Z"/>
</mask>
<path d="M265.752 229.74C265.588 229.808 265.422 229.877 265.252 229.941C264.792 230.116 264.322 230.268 263.846 230.395C261.817 230.938 259.691 231.02 257.627 230.632C257.556 230.794 257.485 230.957 257.413 231.122C259.59 231.551 261.837 231.475 263.98 230.901C264.489 230.765 264.99 230.603 265.481 230.414C265.648 230.351 265.814 230.282 265.977 230.211C267.322 229.638 268.572 228.863 269.685 227.913C269.539 227.803 269.397 227.694 269.257 227.588C268.201 228.474 267.02 229.199 265.752 229.74Z" fill="#2AFF07"/>
<path d="M265.752 229.74L278.044 259.285L278.172 259.231L278.301 259.177L265.752 229.74ZM265.252 229.941L253.928 200.012L253.905 200.02L253.883 200.029L265.252 229.941ZM263.846 230.395L255.597 199.476L255.579 199.481L255.562 199.486L263.846 230.395ZM257.627 230.632L263.533 199.182L238.437 194.468L228.271 217.893L257.627 230.632ZM257.413 231.122L228.088 218.315L212.139 254.832L251.238 262.521L257.413 231.122ZM263.98 230.901L255.729 199.983L255.717 199.986L255.705 199.99L263.98 230.901ZM265.481 230.414L254.111 200.502L254.061 200.521L254.011 200.54L265.481 230.414ZM265.977 230.211L253.423 200.777L253.339 200.813L253.255 200.849L265.977 230.211ZM269.685 227.913L290.459 252.254L320.737 226.412L288.992 202.394L269.685 227.913ZM269.257 227.588L288.696 202.169L268.33 186.594L248.689 203.073L269.257 227.588ZM253.459 200.195C253.385 200.226 253.42 200.211 253.486 200.185C253.559 200.155 253.716 200.092 253.928 200.012L276.577 259.87C277.292 259.6 277.897 259.346 278.044 259.285L253.459 200.195ZM253.883 200.029C254.444 199.815 255.017 199.631 255.597 199.476L272.094 261.313C273.628 260.904 275.139 260.417 276.622 259.853L253.883 200.029ZM255.562 199.486C258.162 198.788 260.887 198.685 263.533 199.182L251.72 262.082C258.496 263.354 265.471 263.088 272.13 261.304L255.562 199.486ZM228.271 217.893C228.198 218.062 228.143 218.189 228.088 218.315L286.738 243.93C286.828 243.724 286.914 243.527 286.982 243.371L228.271 217.893ZM251.238 262.521C258.207 263.891 265.396 263.649 272.256 261.812L255.705 199.99C258.278 199.301 260.974 199.21 263.588 199.724L251.238 262.521ZM272.232 261.819C273.83 261.392 275.406 260.881 276.951 260.288L254.011 200.54C254.574 200.324 255.148 200.138 255.729 199.983L272.232 261.819ZM276.851 260.326C277.59 260.045 278.221 259.781 278.699 259.574L253.255 200.849C253.407 200.783 253.707 200.656 254.111 200.502L276.851 260.326ZM278.531 259.646C282.859 257.8 286.881 255.307 290.459 252.254L248.911 203.573C250.264 202.419 251.785 201.476 253.423 200.777L278.531 259.646ZM288.992 202.394C288.89 202.316 288.791 202.241 288.696 202.169L249.819 253.007C250.003 253.148 250.189 253.29 250.378 253.432L288.992 202.394ZM248.689 203.073C250.048 201.934 251.569 201 253.202 200.303L278.301 259.177C282.471 257.399 286.354 255.015 289.825 252.102L248.689 203.073Z" fill="#05FF3C" mask="url(#path-21-inside-2)"/>
<mask id="path-23-inside-3" fill="white">
<path d="M269.277 237.876C269.105 237.933 268.932 237.985 268.758 238.031C268.705 238.048 268.649 238.063 268.596 238.077C266.397 238.663 264.088 238.708 261.867 238.208C259.647 237.708 257.579 236.678 255.842 235.205C255.781 235.381 255.719 235.558 255.661 235.736C257.457 237.216 259.579 238.246 261.852 238.742C264.125 239.237 266.483 239.183 268.731 238.583C268.802 238.564 268.873 238.546 268.943 238.524C269.119 238.474 269.292 238.423 269.465 238.369C272.128 237.51 274.488 235.902 276.262 233.736C276.141 233.609 276.021 233.481 275.898 233.354C274.177 235.474 271.876 237.046 269.277 237.876V237.876Z"/>
</mask>
<path d="M269.277 237.876C269.105 237.933 268.932 237.985 268.758 238.031C268.705 238.048 268.649 238.063 268.596 238.077C266.397 238.663 264.088 238.708 261.867 238.208C259.647 237.708 257.579 236.678 255.842 235.205C255.781 235.381 255.719 235.558 255.661 235.736C257.457 237.216 259.579 238.246 261.852 238.742C264.125 239.237 266.483 239.183 268.731 238.583C268.802 238.564 268.873 238.546 268.943 238.524C269.119 238.474 269.292 238.423 269.465 238.369C272.128 237.51 274.488 235.902 276.262 233.736C276.141 233.609 276.021 233.481 275.898 233.354C274.177 235.474 271.876 237.046 269.277 237.876V237.876Z" fill="#2AFF07"/>
<path d="M268.758 238.031L260.513 207.112L259.776 207.308L259.049 207.539L268.758 238.031ZM268.596 238.077L260.354 207.157L260.352 207.157L268.596 238.077ZM255.842 235.205L276.537 210.797L240.963 180.635L225.623 224.68L255.842 235.205ZM255.661 235.736L225.243 225.799L218.465 246.548L235.31 260.43L255.661 235.736ZM268.731 238.583L276.973 269.504L276.974 269.504L268.731 238.583ZM268.943 238.524L260.257 207.725L259.927 207.819L259.599 207.919L268.943 238.524ZM269.465 238.369L279.043 268.902L279.162 268.864L279.281 268.826L269.465 238.369ZM276.262 233.736L301.015 254.016L318.853 232.244L299.535 211.773L276.262 233.736ZM275.898 233.354L298.881 211.088L273.777 185.174L251.047 213.193L275.898 233.354ZM259.257 207.486C259.672 207.349 260.091 207.224 260.513 207.112L277.002 268.951C277.773 268.745 278.538 268.517 279.297 268.267L259.257 207.486ZM259.049 207.539C259.51 207.393 259.877 207.288 260.072 207.234C260.255 207.183 260.407 207.143 260.354 207.157L276.839 268.997C276.839 268.997 277.045 268.942 277.282 268.876C277.532 268.807 277.953 268.686 278.466 268.523L259.049 207.539ZM260.352 207.157C263.145 206.412 266.077 206.355 268.897 206.99L254.838 269.427C262.099 271.062 269.648 270.914 276.84 268.997L260.352 207.157ZM268.897 206.99C271.717 207.625 274.338 208.933 276.537 210.797L235.147 259.612C240.821 264.423 247.576 267.792 254.838 269.427L268.897 206.99ZM225.623 224.68C225.578 224.808 225.414 225.277 225.243 225.799L286.079 245.672C286.062 245.726 286.048 245.768 286.038 245.796C286.029 245.825 286.022 245.843 286.021 245.848C286.02 245.851 286.021 245.846 286.029 245.825C286.032 245.815 286.036 245.803 286.042 245.787C286.048 245.77 286.054 245.753 286.062 245.73L225.623 224.68ZM235.31 260.43C241.03 265.145 247.793 268.429 255.04 270.008L268.664 207.475C271.366 208.064 273.884 209.287 276.013 211.041L235.31 260.43ZM255.04 270.008C262.288 271.587 269.807 271.414 276.973 269.504L260.489 207.663C263.16 206.951 265.963 206.886 268.664 207.475L255.04 270.008ZM276.974 269.504C276.986 269.5 277.16 269.454 277.356 269.4C277.568 269.341 277.894 269.249 278.287 269.13L259.599 207.919C259.921 207.82 260.177 207.748 260.318 207.709C260.444 207.675 260.547 207.647 260.488 207.663L276.974 269.504ZM277.628 269.323C278.105 269.189 278.576 269.048 279.043 268.902L259.886 207.836C260.009 207.797 260.133 207.76 260.257 207.725L277.628 269.323ZM279.281 268.826C287.802 266.08 295.346 260.936 301.015 254.016L251.509 213.456C253.629 210.869 256.453 208.941 259.648 207.912L279.281 268.826ZM299.535 211.773C299.439 211.672 299.175 211.391 298.881 211.088L252.914 255.619C252.88 255.584 252.865 255.568 252.879 255.583C252.886 255.59 252.897 255.602 252.916 255.622C252.936 255.643 252.957 255.665 252.989 255.699L299.535 211.773ZM251.047 213.193C253.249 210.479 256.199 208.461 259.539 207.394L279.015 268.359C287.554 265.631 295.106 260.469 300.748 253.514L251.047 213.193Z" fill="#05FF3C" mask="url(#path-23-inside-3)"/>
<mask id="path-25-inside-4" fill="white">
<path d="M271.569 244.828C271.396 244.891 271.222 244.948 271.047 245.003C270.859 245.061 270.671 245.117 270.481 245.167C267.525 245.952 264.394 245.756 261.558 244.61C258.721 243.463 256.332 241.428 254.748 238.808C254.688 239.043 254.628 239.276 254.574 239.51C256.262 242.096 258.72 244.083 261.6 245.189C264.48 246.296 267.635 246.465 270.616 245.674C270.806 245.623 270.995 245.57 271.179 245.51C271.357 245.457 271.532 245.4 271.705 245.34C275.206 244.107 278.108 241.587 279.824 238.292C279.721 238.118 279.611 237.95 279.5 237.779C277.873 241.072 275.028 243.601 271.569 244.828Z"/>
</mask>
<path d="M271.569 244.828C271.396 244.891 271.222 244.948 271.047 245.003C270.859 245.061 270.671 245.117 270.481 245.167C267.525 245.952 264.394 245.756 261.558 244.61C258.721 243.463 256.332 241.428 254.748 238.808C254.688 239.043 254.628 239.276 254.574 239.51C256.262 242.096 258.72 244.083 261.6 245.189C264.48 246.296 267.635 246.465 270.616 245.674C270.806 245.623 270.995 245.57 271.179 245.51C271.357 245.457 271.532 245.4 271.705 245.34C275.206 244.107 278.108 241.587 279.824 238.292C279.721 238.118 279.611 237.95 279.5 237.779C277.873 241.072 275.028 243.601 271.569 244.828Z" fill="#2AFF07"/>
<path d="M271.569 244.828L260.864 214.672L260.788 214.699L260.712 214.727L271.569 244.828ZM271.047 245.003L280.518 275.569L280.564 275.555L280.61 275.541L271.047 245.003ZM270.481 245.167L278.689 276.097L278.707 276.092L278.724 276.087L270.481 245.167ZM254.748 238.808L282.13 222.249L242.435 156.608L223.715 230.999L254.748 238.808ZM254.574 239.51L223.399 232.292L220.322 245.581L227.778 257.003L254.574 239.51ZM270.616 245.674L278.826 276.602L278.844 276.598L278.862 276.593L270.616 245.674ZM271.179 245.51L262.067 214.835L261.67 214.953L261.277 215.08L271.179 245.51ZM271.705 245.34L282.136 275.592L282.237 275.557L282.338 275.522L271.705 245.34ZM279.824 238.292L308.208 253.068L316.435 237.264L307.334 221.946L279.824 238.292ZM279.5 237.779L306.387 220.425L275.802 173.04L250.813 223.6L279.5 237.779ZM260.712 214.727C261.099 214.587 261.383 214.497 261.484 214.465L280.61 275.541C281.061 275.399 281.694 275.195 282.427 274.93L260.712 214.727ZM261.576 214.437C261.645 214.415 261.888 214.34 262.239 214.247L278.724 276.087C279.454 275.893 280.074 275.707 280.518 275.569L261.576 214.437ZM262.274 214.238C266.01 213.246 269.967 213.494 273.549 214.942L249.566 274.278C258.821 278.019 269.04 278.657 278.689 276.097L262.274 214.238ZM273.549 214.942C277.131 216.389 280.139 218.956 282.13 222.249L227.365 255.367C232.525 263.9 240.312 270.538 249.566 274.278L273.549 214.942ZM223.715 230.999C223.714 231.003 223.542 231.672 223.399 232.292L285.749 246.729C285.734 246.796 285.722 246.846 285.715 246.875C285.708 246.903 285.705 246.915 285.708 246.905C285.711 246.892 285.716 246.87 285.729 246.818C285.732 246.806 285.736 246.793 285.739 246.779C285.743 246.765 285.747 246.748 285.751 246.732C285.759 246.699 285.769 246.659 285.78 246.617L223.715 230.999ZM227.778 257.003C233.141 265.217 240.957 271.539 250.124 275.06L273.077 215.318C276.483 216.627 279.383 218.974 281.37 222.018L227.778 257.003ZM250.124 275.06C259.29 278.582 269.334 279.122 278.826 276.602L262.406 214.745C265.935 213.808 269.67 214.009 273.077 215.318L250.124 275.06ZM278.862 276.593C279.283 276.481 280.103 276.258 281.081 275.94L261.277 215.08C261.887 214.882 262.328 214.765 262.371 214.754L278.862 276.593ZM280.292 276.185C281.046 275.961 281.682 275.749 282.136 275.592L261.275 215.087C261.382 215.051 261.669 214.953 262.067 214.835L280.292 276.185ZM282.338 275.522C293.504 271.588 302.748 263.557 308.208 253.068L251.439 223.516C253.469 219.617 256.908 216.625 261.073 215.158L282.338 275.522ZM307.334 221.946C307.065 221.493 306.83 221.119 306.676 220.876C306.541 220.664 306.393 220.436 306.387 220.425L252.614 255.132C252.632 255.159 252.652 255.19 252.661 255.204C252.673 255.223 252.679 255.232 252.683 255.238C252.691 255.251 252.678 255.23 252.654 255.192C252.608 255.12 252.48 254.917 252.313 254.637L307.334 221.946ZM250.813 223.6C252.869 219.44 256.47 216.232 260.864 214.672L282.275 274.985C293.586 270.969 302.876 262.704 308.188 251.957L250.813 223.6Z" fill="#05FF3C" mask="url(#path-25-inside-4)"/>
<path d="M176.846 45.1185C176.846 26.7054 164.027 11.7786 148.214 11.7786C132.401 11.7786 119.582 26.7054 119.582 45.1185C119.582 61.8185 130.126 75.6502 143.885 78.0796V81.2216C143.885 81.8151 144.121 82.3843 144.54 82.804C144.959 83.2237 145.528 83.4595 146.12 83.4595H150.307C150.9 83.4595 151.468 83.2237 151.887 82.804C152.306 82.3843 152.542 81.8151 152.542 81.2216V78.0797C166.301 75.6502 176.846 61.8185 176.846 45.1185Z" fill="url(#paint0_linear)"/>
<path d="M143.197 80.7674C144.093 79.9249 145.16 79.2865 146.326 78.8961C147.491 78.5057 148.727 78.3725 149.949 78.5056C151.18 78.6486 152.362 79.0759 153.4 79.7539C154.438 80.432 155.305 81.3422 155.932 82.4129C156.56 83.4519 156.954 84.615 157.087 85.8217C157.221 87.0283 157.09 88.2497 156.705 89.4009C155.953 91.6968 154.353 93.6075 152.713 95.3295C150.992 97.1361 149.121 98.8023 147.504 100.706C144.836 103.865 142.974 107.624 142.076 111.661C141.178 115.698 141.271 119.894 142.348 123.887C143.767 128.949 146.697 133.455 150.746 136.802C151.26 137.222 151.79 137.623 152.334 138.004C152.965 138.446 153.562 137.41 152.937 136.972C148.541 133.858 145.292 129.38 143.693 124.232C142.481 120.219 142.326 115.961 143.243 111.871C144.16 107.781 146.119 103.998 148.928 100.89C150.634 99.0035 152.545 97.3147 154.25 95.4276C155.884 93.6198 157.374 91.5802 158.012 89.1918C158.336 87.9775 158.416 86.7112 158.248 85.4657C158.08 84.2203 157.669 83.0204 157.036 81.935C156.407 80.8254 155.555 79.8579 154.534 79.0934C153.514 78.3288 152.347 77.7835 151.106 77.4917C148.611 76.9484 146.002 77.4007 143.833 78.7527C143.302 79.092 142.806 79.484 142.354 79.9226C141.799 80.457 142.644 81.3011 143.197 80.7674V80.7674Z" fill="#3F3D56"/>
<path d="M66.5125 31.1573C57.7518 10.9893 36.6092 0.756209 19.2891 8.30106C1.96906 15.8459 -4.96959 38.3116 3.79112 58.4796C11.7367 76.771 29.8672 86.8898 46.0936 82.9858L47.5885 86.4272C47.8709 87.0773 48.3996 87.5884 49.0583 87.8482C49.7171 88.1079 50.4518 88.095 51.101 87.8122L55.6867 85.8146C56.3359 85.5318 56.8463 85.0023 57.1056 84.3426C57.365 83.683 57.352 82.9472 57.0696 82.2971L55.5748 78.8557C69.4894 69.6299 74.4581 49.4488 66.5125 31.1573Z" fill="url(#paint1_linear)"/>
<path d="M46.5307 86.1556C47.1 84.8424 47.9383 83.6636 48.9915 82.6956C50.0447 81.7276 51.2892 80.9919 52.6444 80.5363C53.9752 80.0875 55.3878 79.9354 56.7834 80.0907C58.179 80.246 59.5238 80.7048 60.7238 81.4351C61.96 82.1685 63.0258 83.1574 63.8503 84.3358C64.6748 85.5142 65.2389 86.8551 65.5051 88.269C66.1166 91.5459 65.1245 94.8836 63.9971 97.9345C62.8153 101.133 61.3426 104.239 60.5208 107.56C59.3773 112.227 59.3541 117.1 60.4534 121.778C61.5526 126.457 63.743 130.808 66.845 134.475C70.7519 139.009 75.8974 142.3 81.6481 143.942C82.3535 144.141 83.0663 144.311 83.7846 144.457C84.5342 144.609 84.8549 143.458 84.1018 143.305C78.1184 142.072 72.6656 139.007 68.4975 134.534C64.0791 129.751 61.41 123.609 60.9256 117.111C60.6662 113.818 60.9675 110.506 61.8167 107.315C62.7232 103.947 64.2576 100.794 65.4144 97.5135C66.5182 94.3826 67.3005 91.0206 66.6069 87.7074C65.9693 84.7903 64.2017 82.2458 61.6921 80.6327C60.4894 79.8386 59.141 79.2917 57.7254 79.0239C56.3097 78.756 54.8551 78.7727 53.4459 79.0727C50.5681 79.7255 48.0468 81.4518 46.395 83.9002C45.9932 84.5107 45.6533 85.1598 45.3804 85.838C45.087 86.5477 46.2408 86.8571 46.5307 86.1556L46.5307 86.1556Z" fill="#3F3D56"/>
<path d="M311.235 274.758L317.665 274.758L320.724 249.919L311.233 249.919L311.235 274.758Z" fill="#FFB6B6"/>
<path d="M309.594 272.655L322.258 272.655H322.259C324.399 272.655 326.452 273.506 327.965 275.022C329.479 276.538 330.329 278.593 330.329 280.737V280.999L309.595 281L309.594 272.655Z" fill="#2F2E41"/>
<path d="M273.173 269.282L279.304 271.224L289.702 248.466L280.653 245.6L273.173 269.282Z" fill="#FFB6B6"/>
<path d="M272.242 266.782L284.317 270.606L284.317 270.607C286.358 271.253 288.059 272.685 289.045 274.587C290.032 276.489 290.223 278.706 289.578 280.75L289.499 281L269.729 274.738L272.242 266.782Z" fill="#2F2E41"/>
<path d="M287.652 161.318L284.084 171.396L283.983 225.807L273.863 263.059L286.285 266.531L300.007 231.405L304.409 200.552L310.209 231.584L309.41 268.468H322.444L323.428 211.63C323.704 195.667 320.915 179.8 315.212 164.891V164.891L287.652 161.318Z" fill="#2F2E41"/>
<path d="M283.402 120.492H304.469L313.272 129.307L315.902 165.745L284.084 170.872L273.862 136.105L279.428 121.33L283.402 120.492Z" fill="#E4E4E4"/>
<path d="M275.826 136.453L243.39 124.232L242.545 119.18L263.001 101.846L269.81 106.96L257.469 120.492L279.429 121.33L275.826 136.453Z" fill="#E4E4E4"/>
<path d="M266.936 108.936C269.832 108.936 272.181 106.584 272.181 103.683C272.181 100.783 269.832 98.4309 266.936 98.4309C264.039 98.4309 261.69 100.783 261.69 103.683C261.69 106.584 264.039 108.936 266.936 108.936Z" fill="#FFB6B6"/>
<path d="M279.1 110.301L281.47 99.598C281.886 97.713 282.668 95.9285 283.773 94.3466C284.877 92.7646 286.282 91.4162 287.908 90.3783C289.533 89.3405 291.347 88.6336 293.245 88.2981C295.143 87.9625 297.089 88.005 298.971 88.4229C300.853 88.8408 302.634 89.6261 304.212 90.7337C305.791 91.8414 307.136 93.2498 308.171 94.8784C309.206 96.507 309.91 98.3239 310.243 100.225C310.576 102.126 310.532 104.075 310.113 105.959L307.743 116.662C307.629 117.172 307.318 117.617 306.877 117.898C306.437 118.179 305.903 118.274 305.393 118.161L280.597 112.654C280.087 112.541 279.643 112.229 279.363 111.788C279.082 111.346 278.987 110.812 279.1 110.301Z" fill="#2F2E41"/>
<path d="M295.429 114.335C301.134 112.679 304.419 106.706 302.766 100.993C301.113 95.2794 295.148 91.9899 289.442 93.6454C283.737 95.3009 280.452 101.274 282.106 106.988C283.759 112.701 289.724 115.99 295.429 114.335Z" fill="#FFB6B6"/>
<path d="M277.893 99.7017C278.562 96.6947 280.395 94.0763 282.99 92.4211C285.585 90.766 288.73 90.2091 291.734 90.8727L293.872 91.3475C296.874 92.0179 299.489 93.8537 301.142 96.4523C302.795 99.0508 303.351 102.2 302.688 105.208L302.641 105.422L298.123 104.419L297.539 99.7565L296.274 104.009L293.94 103.49L293.645 101.138L293.007 103.283L277.845 99.9158L277.893 99.7017Z" fill="#2F2E41"/>
<path d="M288.752 115.728C288.604 115.393 288.553 115.024 288.605 114.661C288.658 114.299 288.811 113.959 289.048 113.68C292.269 109.868 297.206 102.6 294.085 96.7487L293.861 96.3282L306.082 99.0423L302.013 117.417L290.476 116.913C290.359 116.908 290.243 116.893 290.129 116.867C289.826 116.8 289.543 116.662 289.304 116.464C289.065 116.266 288.876 116.014 288.752 115.728Z" fill="#2F2E41"/>
<path d="M303.631 120.712L337.942 125.598L339.861 130.346L323.646 151.71L315.891 148.197L325.008 132.307L303.39 136.259L303.631 120.712Z" fill="#E4E4E4"/>
<path d="M355 51.4497C355 29.4562 339.689 11.627 320.801 11.627C301.913 11.627 286.602 29.4562 286.602 51.4497C286.602 71.3968 299.197 87.9181 315.631 90.8199V94.5727C315.631 95.2817 315.912 95.9616 316.413 96.4629C316.914 96.9642 317.593 97.2459 318.301 97.2459H323.301C324.009 97.2459 324.688 96.9642 325.189 96.4629C325.689 95.9616 325.971 95.2817 325.971 94.5727V90.8199C342.405 87.9181 355 71.3969 355 51.4497Z" fill="url(#paint2_linear)"/>
<path d="M314.727 93.9482C315.813 92.9262 317.107 92.1526 318.521 91.681C319.935 91.2095 321.434 91.0512 322.915 91.2171C324.37 91.3887 325.767 91.8897 326.999 92.6819C328.232 93.4742 329.269 94.5371 330.031 95.79C330.806 97.0265 331.305 98.4166 331.493 99.8645C331.681 101.313 331.553 102.784 331.118 104.178C330.275 106.914 328.423 109.205 326.492 111.258C324.433 113.448 322.177 115.451 320.208 117.727C316.998 121.463 314.742 125.923 313.634 130.725C312.527 135.526 312.6 140.525 313.848 145.292C315.518 151.419 319.046 156.875 323.945 160.908C324.54 161.393 325.152 161.856 325.782 162.296C326.412 162.737 327.009 161.702 326.384 161.264C321.137 157.55 317.252 152.217 315.322 146.08C313.857 141.29 313.649 136.202 314.719 131.308C315.789 126.414 318.101 121.879 321.431 118.141C323.455 115.878 325.734 113.863 327.781 111.622C329.742 109.476 331.541 107.067 332.347 104.232C332.752 102.8 332.87 101.301 332.693 99.8233C332.517 98.3453 332.049 96.9171 331.318 95.6212C330.59 94.2961 329.596 93.1359 328.398 92.2134C327.201 91.291 325.827 90.6262 324.361 90.2607C321.382 89.575 318.254 90.0946 315.656 91.7064C315.019 92.11 314.425 92.5781 313.883 93.1034C313.33 93.6385 314.174 94.4828 314.727 93.9482V93.9482Z" fill="#3F3D56"/>
<path d="M318.863 157.785C321.76 157.785 324.108 155.434 324.108 152.533C324.108 149.632 321.76 147.28 318.863 147.28C315.966 147.28 313.618 149.632 313.618 152.533C313.618 155.434 315.966 157.785 318.863 157.785Z" fill="#FFB6B6"/>
<path d="M264.205 105.158C263.93 105.594 263.263 105.53 262.889 105.258C262.369 104.88 262.537 104.152 262.895 103.722C264.033 102.354 265.914 103.798 266.168 105.156C266.262 105.818 266.161 106.493 265.875 107.098C265.59 107.703 265.133 108.211 264.563 108.558C263.265 109.328 261.579 108.942 260.463 108.02C258.135 106.097 258.769 102.247 261.355 100.856C263.005 99.9681 265.091 100.358 266.716 101.101C268.546 101.939 270.12 103.222 271.812 104.291C275.525 106.619 279.725 108.055 284.084 108.488C284.847 108.566 284.841 107.37 284.084 107.293C281.668 107.043 279.297 106.471 277.032 105.593C274.792 104.683 272.665 103.515 270.696 102.11C268.704 100.743 266.622 99.4141 264.156 99.1881C263.161 99.0717 262.153 99.2213 261.235 99.6215C260.316 100.022 259.52 100.659 258.927 101.467C258.399 102.19 258.046 103.026 257.895 103.909C257.744 104.792 257.799 105.698 258.056 106.556C258.366 107.453 258.907 108.252 259.626 108.872C260.344 109.491 261.214 109.909 262.146 110.083C263.043 110.252 263.971 110.137 264.8 109.754C265.629 109.37 266.318 108.737 266.77 107.943C267.678 106.371 267.648 104.26 266.277 102.957C265.884 102.557 265.393 102.268 264.852 102.121C264.311 101.974 263.741 101.973 263.2 102.119C262.702 102.287 262.263 102.598 261.938 103.012C261.613 103.426 261.415 103.927 261.37 104.452C261.237 106.492 264.13 107.512 265.235 105.761C265.647 105.109 264.615 104.509 264.205 105.158V105.158Z" fill="#3F3D56"/>
<path d="M25.5288 169.363L23.9533 171.342L18.3804 168.041L19.9559 166.061L25.5288 169.363Z" fill="#FF00B8"/>
<path d="M31.3437 177.869L32.7355 179.949L26.8811 182.865L25.4893 180.785L31.3437 177.869Z" fill="#FF00B8"/>
<path d="M37.4042 168.827L40.1855 168.925L39.9087 174.753L37.1274 174.654L37.4042 168.827Z" fill="#FF00B8"/>
<path d="M91.1436 11.6645L89.568 13.6441L83.9951 10.3428L85.5707 8.36279L91.1436 11.6645Z" fill="#FF00B8"/>
<path d="M96.9589 20.1706L98.3508 22.2506L92.4963 25.1668L91.1045 23.0868L96.9589 20.1706Z" fill="#FF00B8"/>
<path d="M103.019 11.1285L105.8 11.2268L105.523 17.0545L102.742 16.9561L103.019 11.1285Z" fill="#FF00B8"/>
<path d="M245.836 32.3723L244.26 34.3519L238.688 31.0506L240.263 29.0706L245.836 32.3723Z" fill="#FF00B8"/>
<path d="M251.651 40.8785L253.043 42.9584L247.188 45.8746L245.796 43.7947L251.651 40.8785Z" fill="#FF00B8"/>
<path d="M257.711 31.8363L260.493 31.9347L260.216 37.7623L257.435 37.664L257.711 31.8363Z" fill="#FF00B8"/>
<path d="M198.514 3.30171L196.938 5.28129L191.365 1.97999L192.941 0L198.514 3.30171Z" fill="#FF00B8"/>
<path d="M204.329 11.8078L205.72 13.8878L199.866 16.804L198.474 14.7241L204.329 11.8078Z" fill="#FF00B8"/>
<path d="M210.389 2.76569L213.17 2.86405L212.894 8.69171L210.112 8.59335L210.389 2.76569Z" fill="#FF00B8"/>
<path d="M246.626 152.123L245.05 154.421L250.623 158.253L252.198 155.955L246.626 152.123Z" fill="#FF00B8"/>
<path d="M252.159 169.213L253.551 171.627L259.405 168.242L258.014 165.828L252.159 169.213Z" fill="#FF00B8"/>
<path d="M263.797 162.097L266.579 162.211L266.856 155.447L264.074 155.333L263.797 162.097Z" fill="#FF00B8"/>
<path d="M128.406 256.407L133.224 255.661L129.921 217.112L119.184 219.104L128.406 256.407Z" fill="#FFB6B6"/>
<path d="M126.934 255.022L136.422 253.553L136.422 253.553C138.026 253.305 139.663 253.704 140.972 254.664C142.281 255.624 143.156 257.066 143.404 258.672L143.435 258.869L127.899 261.274L126.934 255.022Z" fill="#2F2E41"/>
<path d="M77.7686 255.929L82.6392 256.137L88.5636 221.891L77.8266 221.891L77.7686 255.929Z" fill="#FFB6B6"/>
<path d="M76.5935 254.284L86.1861 254.693H86.1865C87.8078 254.762 89.3351 255.473 90.4327 256.67C91.5302 257.867 92.108 259.452 92.039 261.075L92.0305 261.274L76.3247 260.604L76.5935 254.284Z" fill="#2F2E41"/>
<path d="M87.3581 144.354C87.1282 144.289 86.8929 144.245 86.6552 144.223L89.6917 119.333L99.9948 97.4832C100.643 96.1087 100.747 94.5392 100.285 93.0913C99.8228 91.6433 98.8297 90.4246 97.5058 89.6811C96.1819 88.9375 94.6257 88.7243 93.151 89.0846C91.6764 89.4449 90.393 90.3517 89.5598 91.6223V91.6223C86.8594 95.7396 84.8167 100.253 83.5054 105.001L79.1768 120.674L82.342 147.551C82.2206 148.309 82.3204 149.086 82.6294 149.788C82.9384 150.49 83.4433 151.087 84.0836 151.509C84.7238 151.93 85.472 152.158 86.2382 152.163C87.0043 152.169 87.7558 151.953 88.4021 151.541C89.0485 151.129 89.5621 150.538 89.8813 149.841C90.2005 149.143 90.3117 148.368 90.2014 147.609C90.0911 146.85 89.764 146.139 89.2596 145.561C88.7552 144.984 88.0949 144.564 87.3581 144.354H87.3581Z" fill="#FFB6B6"/>
<path d="M93.6138 121.44L80.5967 106.528L87.0453 91.3385C87.8897 89.3495 89.4769 87.7698 91.4683 86.9364C93.4596 86.1029 95.6974 86.0819 97.704 86.8777C99.7106 87.6735 101.327 89.2232 102.209 91.196C103.09 93.1688 103.167 95.4084 102.422 97.4371L93.6138 121.44Z" fill="#2F2E41"/>
<path d="M115.253 73.9007C118.385 68.1635 116.279 60.9703 110.55 57.8341C104.821 54.6979 97.6378 56.8064 94.506 62.5435C91.3743 68.2806 93.4798 75.4739 99.2088 78.6101C104.938 81.7463 112.121 79.6378 115.253 73.9007Z" fill="#FFB6B6"/>
<path d="M106.856 53.8391H99.2195C94.2129 53.8391 90.1543 58.4115 90.1543 64.0519L90.5077 77.7327C95.9174 78.4067 101.209 79.8238 106.232 81.9443L106.945 78.8961L108.351 82.9105C109.601 83.5172 110.841 84.1807 112.07 84.9008C110.635 78.1504 110.045 71.4157 111.03 66.1841H113.617V63.3495L114.495 66.1841H119.184V66.1841C119.184 64.5629 118.865 62.9576 118.246 61.4599C117.626 59.9621 116.718 58.6012 115.573 57.4548C114.429 56.3085 113.07 55.3992 111.574 54.7788C110.078 54.1584 108.475 53.8391 106.856 53.8391V53.8391Z" fill="#2F2E41"/>
<path d="M131.757 219.207L130.65 219.474L129.722 202.179L122.961 150.409L115.207 130.697L118.985 116.958C118.985 116.958 123.359 107.401 112.423 100.033L103.675 85.2991C97.6313 81.3421 92.6591 83.9294 90.0087 90.6553C87.6992 96.5156 85.9064 103.93 86.9726 111.582C89.3611 128.724 91.3469 130.697 91.3469 130.697C91.3469 130.697 76.4344 147.223 79.6158 168.329L77.8428 222.976L76.2206 222.909L76.043 227.25L90.2143 227.832L90.392 223.491L89.2165 223.443L94.3294 201.781L101.885 173.108L115.008 208.152L119.422 222.181L117.968 222.532L118.984 226.756L132.772 223.43L131.757 219.207Z" fill="#2F2E41"/>
<path d="M141.495 121.077C141.335 121.254 141.191 121.446 141.064 121.648L120.185 107.807L105.269 88.814C104.33 87.6192 102.975 86.8251 101.475 86.592C99.9747 86.3589 98.4423 86.704 97.1864 87.5579C95.9306 88.4117 95.0449 89.7107 94.7078 91.1928C94.3708 92.6749 94.6075 94.2299 95.3703 95.5441V95.5441C97.842 99.8029 100.962 103.65 104.617 106.946L116.685 117.827L142.111 127C142.733 127.447 143.472 127.705 144.237 127.742C145.002 127.779 145.762 127.593 146.424 127.208C147.087 126.823 147.624 126.254 147.972 125.57C148.319 124.886 148.462 124.116 148.382 123.353C148.303 122.59 148.005 121.866 147.525 121.268C147.044 120.671 146.401 120.225 145.674 119.985C144.946 119.744 144.165 119.719 143.424 119.913C142.682 120.107 142.013 120.511 141.495 121.077H141.495Z" fill="#FFB6B6"/>
<path d="M123.82 105.235L104.682 110.234L93.9934 97.67C92.5938 96.0248 91.8916 93.897 92.0368 91.7406C92.182 89.5842 93.1631 87.57 94.7706 86.1279C96.3781 84.6858 98.4848 83.9299 100.641 84.0216C102.797 84.1133 104.833 85.0453 106.312 86.6187L123.82 105.235Z" fill="#2F2E41"/>
<path d="M272.161 261.68H14.7538C14.6282 261.68 14.5078 261.63 14.419 261.541C14.3302 261.452 14.2803 261.332 14.2803 261.206C14.2803 261.08 14.3302 260.96 14.419 260.871C14.5078 260.782 14.6282 260.732 14.7538 260.732H272.161C272.287 260.732 272.407 260.782 272.496 260.871C272.585 260.96 272.634 261.08 272.634 261.206C272.634 261.332 272.585 261.452 272.496 261.541C272.407 261.63 272.287 261.68 272.161 261.68Z" fill="#CACACA"/>
<defs>
<linearGradient id="paint0_linear" x1="119.582" y1="47.619" x2="176.846" y2="47.619" gradientUnits="userSpaceOnUse">
<stop stop-color="#00F5A0"/>
<stop offset="1" stop-color="#00D9F5"/>
</linearGradient>
<linearGradient id="paint1_linear" x1="0" y1="46.9264" x2="70.3035" y2="46.9264" gradientUnits="userSpaceOnUse">
<stop stop-color="#091E3A"/>
<stop offset="0.5" stop-color="#2F80ED"/>
<stop offset="1" stop-color="#2D9EE0"/>
</linearGradient>
<linearGradient id="paint2_linear" x1="286.602" y1="54.4364" x2="355" y2="54.4364" gradientUnits="userSpaceOnUse">
<stop stop-color="#DA22FF"/>
<stop offset="1" stop-color="#9733EE"/>
</linearGradient>
</defs>
</svg>
