<svg width="269" height="84" viewBox="0 0 269 84" fill="none" xmlns="http://www.w3.org/2000/svg">
<path fill-rule="evenodd" clip-rule="evenodd" d="M0 64.1675L26 61.1675C52 58.1675 104 52.1675 156 30.1675C208 8.16754 261 -29.8325 313 -26.8325C365 -23.8325 417 20.1675 469 39.1675C521 58.1675 573 52.1675 599 49.1675L625 45.1675V83.1675H599C573 83.1675 521 83.1675 469 83.1675C417 83.1675 365 83.1675 313 83.1675C261 83.1675 208 83.1675 156 83.1675C104 83.1675 52 83.1675 26 83.1675H0V64.1675Z" fill="#FE4F5B"/>
</svg>
